<?xml version="1.0" encoding="UTF-8"?><svg id="Layer_1" xmlns="http://www.w3.org/2000/svg" viewBox="0 0 8808.88 1043.48"><defs><style>.cls-1{fill:#f3fafd;}.cls-2{fill:#ee2d26;}.cls-3{fill:#8195a2;}.cls-4{fill:#7f9f75;}.cls-5{fill:#8bd6ef;}.cls-6{fill:#8ec2d2;}.cls-7{fill:#aadae2;}.cls-8{fill:#daf0f4;}.cls-9{fill:#365665;}.cls-10{fill:#9ba5ac;}.cls-11{fill:#527486;}</style></defs><rect class="cls-6" y="0" width="8808.88" height="583.37"/><rect class="cls-4" y="573.32" width="8808.88" height="470.15"/><g><rect class="cls-11" y="554.8" width="8808.88" height="37.05"/><rect class="cls-3" y="554.8" width="8808.88" height="10.96"/><rect class="cls-3" y="583.37" width="8808.88" height="8.48"/></g><g><g><rect class="cls-9" x="5028.71" y="463.45" width="30.53" height="61.47"/><polygon class="cls-11" points="5036.63 455.74 5030.7 463.65 5030.7 524.96 5036.63 532.88 5042.58 524.96 5042.58 463.65 5036.63 455.74"/><rect class="cls-7" x="5059.24" y="526.47" width="386.06" height="46.86"/><rect class="cls-8" x="5252.27" y="551.97" width="193.03" height="21.36"/><rect class="cls-8" x="5346.73" y="537.17" width="15.96" height="36.16"/><rect class="cls-8" x="5059.24" y="551.97" width="193.03" height="21.36"/><rect class="cls-8" x="5141.85" y="537.17" width="15.96" height="36.16"/><path class="cls-8" d="M5252.27,448.8h-193.03v88.37h386.06v-88.37h-193.03Zm117.65,21.47h22.88v25.07h-22.88v-25.07Zm-35.81,0h22.87v25.07h-22.87v-25.07Zm-35.82,0h22.87v25.07h-22.87v-25.07Zm-114.91,0h22.87v25.07h-22.87v-25.07Zm-35.82,0h22.87v25.07h-22.87v-25.07Zm-35.82,0h22.87v25.07h-22.87v-25.07Zm-43.97,34.79h-4.79v-2.34h4.79v2.34Zm31.02,15.37h-22.87v-50.15h22.87v50.15Zm298.76-15.37h-290.56v-2.34h290.56v2.34Zm31.06,15.37h-22.87v-50.15h22.87v50.15Zm12.94-15.37h-4.79v-2.34h4.79v2.34Z"/><path class="cls-8" d="M5252.27,448.8h-193.03v88.37h386.06v-88.37h-193.03Zm117.65,21.47h22.88v25.07h-22.88v-25.07Zm-35.81,0h22.87v25.07h-22.87v-25.07Zm-35.82,0h22.87v25.07h-22.87v-25.07Zm-114.91,0h22.87v25.07h-22.87v-25.07Zm-35.82,0h22.87v25.07h-22.87v-25.07Zm-35.82,0h22.87v25.07h-22.87v-25.07Zm-43.97,34.79h-4.79v-2.34h4.79v2.34Zm31.02,15.37h-22.87v-50.15h22.87v50.15Zm298.76-15.37h-290.56v-2.34h290.56v2.34Zm31.06,15.37h-22.87v-50.15h22.87v50.15Zm12.94-15.37h-4.79v-2.34h4.79v2.34Z"/><polygon class="cls-11" points="5051.28 455.74 5045.34 463.65 5045.34 524.96 5051.28 532.88 5057.22 524.96 5057.22 463.65 5051.28 455.74"/><rect class="cls-5" x="5369.93" y="470.26" width="22.88" height="25.07"/><path class="cls-10" d="M5394.05,496.58h-25.36v-27.55h25.36v27.55Zm-22.88-2.48h20.4v-22.6h-20.4v22.6Z"/><rect class="cls-5" x="5334.12" y="470.26" width="22.87" height="25.07"/><path class="cls-10" d="M5358.23,496.58h-25.35v-27.55h25.35v27.55Zm-22.87-2.48h20.4v-22.6h-20.4v22.6Z"/><rect class="cls-5" x="5298.29" y="470.26" width="22.87" height="25.07"/><path class="cls-10" d="M5322.41,496.58h-25.35v-27.55h25.35v27.55Zm-22.87-2.48h20.4v-22.6h-20.4v22.6Z"/><rect class="cls-5" x="5183.38" y="470.26" width="22.87" height="25.07"/><path class="cls-10" d="M5207.5,496.58h-25.35v-27.55h25.35v27.55Zm-22.88-2.48h20.41v-22.6h-20.41v22.6Z"/><rect class="cls-5" x="5147.57" y="470.26" width="22.87" height="25.07"/><path class="cls-10" d="M5171.68,496.58h-25.35v-27.55h25.35v27.55Zm-22.87-2.48h20.39v-22.6h-20.39v22.6Z"/><rect class="cls-5" x="5111.75" y="470.26" width="22.87" height="25.07"/><path class="cls-10" d="M5135.86,496.58h-25.35v-27.55h25.35v27.55Zm-22.87-2.48h20.39v-22.6h-20.39v22.6Z"/><rect class="cls-2" x="5062.99" y="502.71" width="4.79" height="2.34"/><rect class="cls-8" x="5075.93" y="470.26" width="22.87" height="50.15"/><path class="cls-10" d="M5100.04,521.65h-25.35v-52.63h25.35v52.63Zm-22.88-2.48h20.41v-47.67h-20.41v47.67Z"/><polygon class="cls-2" points="5397.56 505.05 5252.27 505.05 5107 505.05 5107 502.71 5252.27 502.71 5397.56 502.71 5397.56 505.05"/><rect class="cls-8" x="5405.75" y="470.26" width="22.87" height="50.15"/><path class="cls-10" d="M5429.86,521.65h-25.35v-52.63h25.35v52.63Zm-22.88-2.48h20.41v-47.67h-20.41v47.67Z"/><rect class="cls-2" x="5436.77" y="502.71" width="4.79" height="2.34"/><path class="cls-1" d="M5061.72,461.18h381.1v-9.91h-381.1v9.91Z"/></g><g><rect class="cls-9" x="4612.11" y="463.45" width="30.53" height="61.47"/><polygon class="cls-11" points="4620.04 455.74 4614.1 463.65 4614.1 524.96 4620.04 532.88 4625.98 524.96 4625.98 463.65 4620.04 455.74"/><rect class="cls-7" x="4642.65" y="526.47" width="386.06" height="46.86"/><rect class="cls-8" x="4835.67" y="551.97" width="193.03" height="21.36"/><rect class="cls-8" x="4930.14" y="537.17" width="15.97" height="36.16"/><rect class="cls-8" x="4642.65" y="551.97" width="193.03" height="21.36"/><rect class="cls-8" x="4725.25" y="537.17" width="15.97" height="36.16"/><path class="cls-8" d="M4835.67,448.8h-193.03v88.37h386.06v-88.37h-193.03Zm117.66,21.47h22.88v25.07h-22.88v-25.07Zm-35.82,0h22.87v25.07h-22.87v-25.07Zm-35.82,0h22.87v25.07h-22.87v-25.07Zm-114.91,0h22.88v25.07h-22.88v-25.07Zm-35.82,0h22.87v25.07h-22.87v-25.07Zm-35.82,0h22.88v25.07h-22.88v-25.07Zm-43.96,34.78h-4.8v-2.34h4.8v2.34Zm31.02,15.37h-22.88v-50.15h22.88v50.15Zm298.75-15.37h-290.55v-2.34h290.55v2.34Zm31.08,15.37h-22.88v-50.15h22.88v50.15Zm12.93-15.37h-4.79v-2.34h4.79v2.34Z"/><path class="cls-8" d="M4835.67,448.8h-193.03v88.37h386.06v-88.37h-193.03Zm117.66,21.47h22.88v25.07h-22.88v-25.07Zm-35.82,0h22.87v25.07h-22.87v-25.07Zm-35.82,0h22.87v25.07h-22.87v-25.07Zm-114.91,0h22.88v25.07h-22.88v-25.07Zm-35.82,0h22.87v25.07h-22.87v-25.07Zm-35.82,0h22.88v25.07h-22.88v-25.07Zm-43.96,34.78h-4.8v-2.34h4.8v2.34Zm31.02,15.37h-22.88v-50.15h22.88v50.15Zm298.75-15.37h-290.55v-2.34h290.55v2.34Zm31.08,15.37h-22.88v-50.15h22.88v50.15Zm12.93-15.37h-4.79v-2.34h4.79v2.34Z"/><polygon class="cls-11" points="4634.68 455.74 4628.74 463.65 4628.74 524.96 4634.68 532.88 4640.62 524.96 4640.62 463.65 4634.68 455.74"/><rect class="cls-5" x="4953.33" y="470.27" width="22.88" height="25.07"/><path class="cls-10" d="M4977.44,496.58h-25.35v-27.55h25.35v27.55Zm-22.87-2.48h20.4v-22.6h-20.4v22.6Z"/><rect class="cls-5" x="4917.51" y="470.27" width="22.87" height="25.07"/><path class="cls-10" d="M4941.63,496.58h-25.35v-27.55h25.35v27.55Zm-22.87-2.48h20.4v-22.6h-20.4v22.6Z"/><rect class="cls-5" x="4881.69" y="470.27" width="22.87" height="25.07"/><path class="cls-10" d="M4905.81,496.58h-25.35v-27.55h25.35v27.55Zm-22.87-2.48h20.39v-22.6h-20.39v22.6Z"/><rect class="cls-5" x="4766.78" y="470.27" width="22.88" height="25.07"/><path class="cls-10" d="M4790.9,496.58h-25.35v-27.55h25.35v27.55Zm-22.88-2.48h20.4v-22.6h-20.4v22.6Z"/><rect class="cls-5" x="4730.96" y="470.27" width="22.87" height="25.07"/><path class="cls-10" d="M4755.08,496.58h-25.35v-27.55h25.35v27.55Zm-22.87-2.48h20.4v-22.6h-20.4v22.6Z"/><rect class="cls-5" x="4695.14" y="470.27" width="22.88" height="25.07"/><path class="cls-10" d="M4719.26,496.58h-25.35v-27.55h25.35v27.55Zm-22.88-2.48h20.4v-22.6h-20.4v22.6Z"/><rect class="cls-2" x="4646.39" y="502.71" width="4.8" height="2.34"/><rect class="cls-8" x="4659.33" y="470.27" width="22.88" height="50.15"/><path class="cls-10" d="M4683.44,521.65h-25.36v-52.63h25.36v52.63Zm-22.88-2.48h20.4v-47.67h-20.4v47.67Z"/><polygon class="cls-2" points="4980.95 505.05 4835.67 505.05 4690.4 505.05 4690.4 502.71 4835.67 502.71 4980.95 502.71 4980.95 505.05"/><rect class="cls-8" x="4989.15" y="470.27" width="22.88" height="50.15"/><path class="cls-10" d="M5013.26,521.65h-25.35v-52.63h25.35v52.63Zm-22.88-2.48h20.41v-47.67h-20.41v47.67Z"/><rect class="cls-2" x="5020.17" y="502.71" width="4.79" height="2.34"/><path class="cls-1" d="M4645.12,461.18h381.11v-9.91h-381.11v9.91Z"/></g><g><rect class="cls-7" x="4264.63" y="526.47" width="347.48" height="46.86"/><polygon class="cls-8" points="4612.11 551.97 4323.75 551.97 4266.13 573.32 4612.11 573.32 4612.11 551.97"/><rect class="cls-8" x="4513.54" y="537.17" width="15.96" height="36.16"/><rect class="cls-8" x="4389.77" y="537.17" width="15.96" height="36.16"/><path class="cls-8" d="M4363.63,448.8c-67.15,0-121.58,57.38-121.58,124.53h23.73l49.52-36.16h296.82v-88.37h-248.48Zm173.1,21.47h22.88v25.07h-22.88v-25.07Zm-35.82,0h22.88v25.07h-22.88v-25.07Zm-35.82,0h22.88v25.07h-22.88v-25.07Zm-102.25,0h22.87v25.07h-22.87v-25.07Zm-66.91,5.44h7.74l-15.7,27h-16.85c6.93-10.17,15.3-19.28,24.81-27Zm-2.6,27l15.7-27h12.03l9.34-5.7h22.88v25.33h-22.88l-9.34,7.37h-27.74Zm271.04,2.34h-234.21l2.38-2.34h231.84v2.34Zm31.07,15.37h-22.88v-50.15h22.88v50.15Zm12.94-15.37h-4.8v-2.34h4.8v2.34Z"/><rect class="cls-5" x="4536.73" y="470.27" width="22.88" height="25.07"/><path class="cls-10" d="M4560.85,496.58h-25.35v-27.55h25.35v27.55Zm-22.88-2.48h20.4v-22.6h-20.4v22.6Z"/><rect class="cls-5" x="4500.92" y="470.27" width="22.88" height="25.07"/><path class="cls-10" d="M4525.03,496.58h-25.35v-27.55h25.35v27.55Zm-22.88-2.48h20.4v-22.6h-20.4v22.6Z"/><rect class="cls-5" x="4465.1" y="470.27" width="22.88" height="25.07"/><path class="cls-10" d="M4489.21,496.58h-25.35v-27.55h25.35v27.55Zm-22.88-2.48h20.4v-22.6h-20.4v22.6Z"/><rect class="cls-5" x="4362.84" y="470.27" width="22.87" height="25.07"/><path class="cls-10" d="M4386.95,496.58h-25.35v-27.55h25.35v27.55Zm-22.87-2.48h20.4v-22.6h-20.4v22.6Z"/><path class="cls-5" d="M4295.93,475.71h7.74l-15.7,27h-16.85c6.93-10.17,15.3-19.28,24.81-27Z"/><path class="cls-10" d="M4288.68,503.94h-19.91l1.32-1.93c7.02-10.3,15.45-19.47,25.06-27.26l.34-.28h10.33l-17.14,29.47Zm-15.19-2.48h13.77l14.26-24.52h-5.15c-8.68,7.09-16.36,15.33-22.88,24.52Z"/><polygon class="cls-5" points="4293.32 502.71 4309.03 475.71 4321.06 475.71 4330.4 470.01 4353.27 470.01 4353.27 495.34 4330.4 495.34 4321.06 502.71 4293.32 502.71"/><path class="cls-10" d="M4321.49,503.94h-30.32l17.14-29.47h12.4l9.34-5.71h24.46v27.81h-23.68l-9.34,7.37Zm-26.01-2.48h25.16l9.34-7.37h22.06v-22.86h-21.29l-9.34,5.71h-11.67l-14.26,24.52Z"/><polygon class="cls-2" points="4564.36 505.05 4330.15 505.05 4332.52 502.71 4564.36 502.71 4564.36 505.05"/><rect class="cls-8" x="4572.55" y="470.27" width="22.88" height="50.15"/><path class="cls-10" d="M4596.67,521.65h-25.35v-52.63h25.35v52.63Zm-22.88-2.48h20.4v-47.67h-20.4v47.67Z"/><rect class="cls-2" x="4603.57" y="502.71" width="4.8" height="2.34"/><path class="cls-1" d="M4295.95,473.24h6.23c18.74-7.89,39.98-12.05,61.45-12.05h246v-9.91h-246c-24.59,0-48,7.76-67.68,21.96Z"/></g></g></svg>